<svg width="63" height="63" viewBox="0 0 63 63" fill="none" xmlns="http://www.w3.org/2000/svg">
<rect x="0.5" y="0.5" width="62" height="62" rx="31" fill="#F5F5F5"/>
<rect x="0.5" y="0.5" width="62" height="62" rx="31" stroke="#E6E6E6"/>
<rect x="11.5" y="14.5" width="41" height="48" rx="7.5" fill="white" stroke="#E6E6E6"/>
<path d="M39.1152 39H22.998C20.4353 39 18.5337 41.3761 19.0952 43.8765L20.6674 50.8765C21.0775 52.7025 22.6987 54 24.5702 54H37.707C39.6121 54 41.2528 52.6565 41.6285 50.7889L43.0366 43.7889C43.5348 41.3125 41.6412 39 39.1152 39Z" fill="#D9D9D9"/>
<circle cx="45" cy="20" r="10" fill="#297AFF"/>
<path d="M45 14.6666V25.3333M45 25.3333L49 21.3333M45 25.3333L41 21.3333" stroke="white" stroke-width="1.5" stroke-linecap="round" stroke-linejoin="round"/>
<path d="M26.5 29H36" stroke="#D7D7D7" stroke-width="2" stroke-linecap="round"/>
<path d="M22 34H40" stroke="#D7D7D7" stroke-width="2" stroke-linecap="round"/>
</svg>
