<svg width="200" height="200" viewBox="0 0 200 200" fill="none" xmlns="http://www.w3.org/2000/svg">
<path fill-rule="evenodd" clip-rule="evenodd" d="M121.43 71.3709C120.855 71.7129 120.216 72.208 120.01 72.4712C119.716 72.8482 119.636 80.5724 119.636 108.791C119.636 140.199 119.579 144.852 119.173 146.408C118.063 150.658 114.797 153.569 110.327 154.293C109.197 154.476 102.277 154.602 93.321 154.603L78.2202 154.606L83.0038 159.373L87.7874 164.14L100.197 166.536C107.022 167.853 112.735 168.931 112.892 168.931C113.048 168.931 116.179 171.917 119.849 175.566L126.523 182.201L142.887 165.871L159.251 149.541L152.64 142.897C148.704 138.941 145.962 135.95 145.863 135.506C145.771 135.096 144.657 129.388 143.386 122.823L141.076 110.886L139.465 108.99C135.868 104.755 133.172 99.9868 131.451 94.8156C129.799 89.8515 129.454 87.6223 129.246 80.5727C129.063 74.3582 129.03 74.0962 128.314 73.0532C126.78 70.8209 123.646 70.0548 121.43 71.3709Z" fill="white"/>
<path fill-rule="evenodd" clip-rule="evenodd" d="M54.7377 18.1219C49.1468 19.1874 44.3662 24.2146 43.5452 29.8922C43.3815 31.0231 43.245 35.1361 43.2417 39.0318L43.2357 46.1149L42.5174 46.2952C42.1223 46.3943 41.4837 46.8101 41.0987 47.2193C40.43 47.9299 40.3944 48.1881 40.3138 52.9398C40.2161 58.6831 40.5055 59.7731 42.265 60.291C43.2014 60.5665 43.2357 60.6321 43.2357 62.1508C43.2357 63.5644 43.1626 63.7431 42.5174 63.9052C42.1223 64.0043 41.4837 64.4201 41.0987 64.8293C40.4324 65.5373 40.3938 65.8107 40.3039 70.4379C40.1925 76.1851 40.4425 77.1736 42.1629 77.7953L43.2357 78.183L43.2417 108.344C43.2453 126.76 43.3633 139.305 43.5452 140.561C44.3859 146.374 49.1654 151.291 55.0137 152.358C57.4626 152.805 103.678 152.805 106.127 152.358C111.11 151.449 115.176 147.959 117.082 142.957L117.755 141.19L117.838 100.881L117.921 60.5718L118.883 60.2886C120.634 59.7734 120.924 58.6756 120.827 52.9398C120.746 48.1881 120.71 47.9299 120.042 47.2193C119.657 46.8101 119.032 46.3976 118.654 46.3027L117.966 46.1301L117.833 37.6964C117.711 29.9898 117.644 29.1102 117.054 27.4958C115.25 22.5572 111.122 19.0065 106.127 18.0947C103.875 17.6837 56.9067 17.7085 54.7377 18.1219ZM64.143 25.8434C64.143 27.9951 64.2192 28.321 64.8763 28.9774L65.6092 29.7101H80.5236C98.2629 29.7101 96.7874 30.045 96.9544 25.9795L97.0607 23.3899L101.584 23.4905C105.945 23.5878 106.164 23.623 107.7 24.4731C109.44 25.4363 110.412 26.4442 111.423 28.3324L112.08 29.5609V85.2265V140.892L111.423 142.121C110.412 144.009 109.44 145.017 107.7 145.98L106.107 146.861H80.5702H55.0334L53.4406 145.98C51.7008 145.017 50.7283 144.009 49.7176 142.121L49.0599 140.892L48.982 85.867C48.9321 50.3959 49.0088 30.4536 49.1988 29.7489C49.6492 28.0772 51.1351 25.9476 52.4645 25.0683C54.5254 23.7054 55.6338 23.4693 60.0363 23.4553L64.143 23.4422V25.8434Z" fill="white"/>
<path fill-rule="evenodd" clip-rule="evenodd" d="M58.5479 71.2748V78.8495H66.2048H73.8618V71.2748V63.7002H66.2048H58.5479V71.2748ZM80.3277 66.2251V68.75H78.6261H76.9246V70.4332V72.1165H78.6261H80.3277V73.7997V75.483H78.6261H76.9246V80.3223V85.1617H75.3932H73.8618V83.4784V81.7952H72.1603H70.4587V83.4784V85.1617H68.7572H67.0556V83.4784V81.7952H62.8017H58.5479V85.1617V88.5282H60.2494H61.951V86.8449V85.1617H64.5033H67.0556V86.8449V88.5282H71.9901H76.9246V90.9268V93.3255H78.6261H80.3277V95.0087V96.692H78.6261H76.9246V98.3752V100.058H78.6261H80.3277V103.425V106.792H83.7308H87.1339V105.108V103.425H85.4323H83.7308V101.742V100.058H82.0292H80.3277V98.3752V96.692H83.7308H87.1339V98.3752V100.058H90.537H93.9401V101.742V103.425H92.2385H90.537V105.108V106.792H92.2385H93.9401V105.108V103.425H95.6416H97.3432V105.108V106.792H99.7254H102.108V105.108V103.425H99.7254H97.3432V101.742V100.058H95.6416H93.9401V98.3752V96.692H98.0238H102.108V92.6101V88.5282H100.406H98.7044V86.8449V85.1617H100.406H102.108V83.4784V81.7952H100.406H98.7044V83.4784V85.1617H96.3223H93.9401V83.4784V81.7952H88.8354H83.7308V83.4784V85.1617H82.0292H80.3277V82.0056V78.8495H82.0292H83.7308V75.483V72.1165H82.0292H80.3277V70.4332V68.75H82.0292H83.7308V66.2251V63.7002H82.0292H80.3277V66.2251ZM86.7936 71.2748V78.8495H94.4506H102.108V71.2748V63.7002H94.4506H86.7936V71.2748ZM70.4587 71.2748V75.483H66.2048H61.951V71.2748V67.0667H66.2048H70.4587V71.2748ZM98.7044 71.2748V75.483H94.4506H90.1967V71.2748V67.0667H94.4506H98.7044V71.2748ZM64.5033 71.2748V72.9581H66.2048H67.9064V71.2748V69.5916H66.2048H64.5033V71.2748ZM92.749 71.2748V72.9581H94.4506H96.1521V71.2748V69.5916H94.4506H92.749V71.2748ZM80.3277 86.8449V88.5282H82.0292H83.7308V86.8449V85.1617H88.8354H93.9401V86.8449V88.5282H96.3223H98.7044V90.9268V93.3255H96.3223H93.9401V95.0087V96.692H90.537H87.1339V92.6101V88.5282H85.4323H83.7308V90.9268V93.3255H82.0292H80.3277V90.9268V88.5282H78.6261H76.9246V86.8449V85.1617H78.6261H80.3277V86.8449ZM90.537 90.2114V91.8947H92.2385H93.9401V90.2114V88.5282H92.2385H90.537V90.2114ZM58.5479 99.2169V106.792H66.2048H73.8618V99.2169V91.6422H66.2048H58.5479V99.2169ZM70.4587 99.2169V103.425H66.2048H61.951V99.2169V95.0087H66.2048H70.4587V99.2169ZM64.5033 99.2169V100.9H66.2048H67.9064V99.2169V97.5336H66.2048H64.5033V99.2169Z" fill="white"/>
</svg>
