<svg width="89" height="21" viewBox="0 0 89 21" fill="none" xmlns="http://www.w3.org/2000/svg">
<path d="M88.2179 0.0595703H65.4375V19.7897H88.2179V0.0595703Z" fill="url(#paint0_linear_464_10038)"/>
<path fill-rule="evenodd" clip-rule="evenodd" d="M19.9604 13.3208V13.3203L19.9611 13.3208H19.9604ZM19.9608 19.796H19.9604V19.7232H19.9608V19.796Z" fill="#111111"/>
<path fill-rule="evenodd" clip-rule="evenodd" d="M19.9604 13.3208V13.3203L19.9611 13.3208H19.9604ZM19.9608 19.7959H19.9604V19.7231H19.9608V19.7959Z" fill="#111111"/>
<path fill-rule="evenodd" clip-rule="evenodd" d="M19.9614 19.796V19.7965H17.0767V5.575V3.88362C17.092 3.53944 17.1556 3.20647 17.2673 2.88449C17.2936 2.80871 17.3227 2.73342 17.3544 2.65881C17.3843 2.5882 17.4167 2.51825 17.4512 2.44882C17.7036 1.94439 18.0166 1.61458 18.4436 1.23635C18.8704 0.857948 19.3555 0.557327 19.8987 0.334159L19.9614 0.308975C20.3642 0.15007 20.7724 0.0524069 21.1857 0.0158522C21.2885 0.00667177 21.3915 0.00150225 21.4948 0H28.6889C29.2358 0 29.7449 0.103661 30.2163 0.310972C30.6875 0.518449 31.1071 0.805874 31.4747 1.17359C31.8424 1.54114 32.1299 1.96078 32.3374 2.43215C32.5447 2.90335 32.6485 3.41244 32.6485 3.95926V7.21144C32.6485 7.92801 32.4694 8.61607 32.111 9.27606C31.7528 9.93588 31.2155 10.445 30.499 10.8032L29.3229 11.8778L34.357 19.7965H30.7653L26.8062 13.3209H19.9618L19.9611 13.3204V13.3209H19.9618L21.2249 14.2383L21.2792 19.796H19.9614V19.7232H19.9611V19.796H19.9614ZM21.2708 10.4516H25.727L29.0567 8.28625C29.4149 8.09764 29.6222 7.91854 29.6788 7.74895C29.7353 7.57919 29.7637 7.40006 29.7637 7.21144V3.95926C29.7637 3.86495 29.726 3.75662 29.6506 3.63394C29.5751 3.51142 29.4808 3.39355 29.3678 3.28038C29.2546 3.16738 29.1368 3.0731 29.0142 2.99765C28.8917 2.92221 28.7832 2.88449 28.6889 2.88449H23.0828H21.8448V2.88416H19.9598L19.9599 2.96326L21.2237 3.8813L21.2708 10.4516Z" fill="#111111"/>
<path fill-rule="evenodd" clip-rule="evenodd" d="M50.9377 1.83293C51.1491 2.08548 51.3294 2.36073 51.4783 2.65867C51.7235 3.14874 51.846 3.66733 51.846 4.21398V15.9223C51.846 16.469 51.7235 16.9875 51.4783 17.4777C51.2333 17.9679 50.9032 18.3969 50.4884 18.7645C50.0736 19.1322 49.6024 19.4244 49.0744 19.6413C48.5464 19.8581 48.0091 19.9664 47.4623 19.9664H39.0343C38.4874 19.9664 37.9689 19.8581 37.4787 19.6413C36.9884 19.4244 36.5596 19.1322 36.1919 18.7645C35.8241 18.3969 35.532 17.9679 35.3152 17.4777C35.0984 16.9875 34.998 16.4707 34.998 15.9239V5.68652V4.20665C34.998 3.82841 35.0568 3.46371 35.1743 3.11252C35.203 3.02672 35.2352 2.94175 35.2709 2.85746C35.3 2.78902 35.3314 2.72126 35.3651 2.65383C35.6098 2.16443 35.9391 1.73628 36.3533 1.36923C36.7674 1.00218 37.238 0.710421 37.765 0.494097C37.813 0.474234 37.8611 0.455521 37.9094 0.437494C38.2729 0.302291 38.641 0.218168 39.0136 0.185285C39.1115 0.176605 39.2098 0.171424 39.3083 0.169922H47.4623C48.0091 0.169922 48.5464 0.27825 49.0744 0.495075C49.6024 0.7119 50.0736 1.0042 50.4884 1.37175C50.6488 1.51397 50.7966 1.66519 50.9316 1.82576C50.9373 1.90805 50.9401 1.991 50.9401 2.07463V1.95527C50.9401 1.91437 50.9393 1.87366 50.9377 1.83293ZM37.9097 3.11101L39.1735 4.02905L39.2267 17.0252H47.4623C47.8394 17.0252 48.1787 16.9357 48.4805 16.7566C48.7821 16.5775 48.9331 16.2994 48.9331 15.9223V4.21398C48.9331 3.83692 48.7821 3.55887 48.4805 3.37977C48.1787 3.20066 47.8394 3.11101 47.4623 3.11101H37.9097Z" fill="#111111"/>
<path fill-rule="evenodd" clip-rule="evenodd" d="M57.3957 19.823H52.8535L56.0776 3.61809C56.4547 2.54331 56.9968 1.67599 57.7039 1.01617C58.4109 0.35635 59.3112 0.0263672 60.4048 0.0263672H65.556C65.6354 0.028704 65.7147 0.0333751 65.7938 0.0403856C66.1607 0.0727674 66.5233 0.155413 66.8814 0.288112C66.9308 0.306472 66.98 0.325659 67.0291 0.345856C67.5506 0.56001 68.0161 0.838912 68.4257 1.20196C68.8354 1.56517 69.1612 1.9888 69.4034 2.47286C69.4366 2.53946 69.4677 2.60673 69.4964 2.67433C69.5296 2.75245 69.5597 2.8314 69.5869 2.91102C69.7017 3.24902 69.7615 3.59971 69.7661 3.96325V19.823H66.8814V3.8641C66.8468 3.56249 66.7004 3.3288 66.4425 3.17557C66.1601 3.00799 65.8442 2.9197 65.4949 2.91102H60.8709V2.90886H59.1466L60.4103 3.8269L57.3957 19.823Z" fill="#111111"/>
<path d="M49.9566 2.58008H47.8013V17.5148H49.9566V2.58008Z" fill="#111111"/>
<path d="M67.5259 2.04688H65.3706V19.8023H67.5259V2.04688Z" fill="#111111"/>
<path d="M30.7566 2.31348H28.8408V9.62999H30.7566V2.31348Z" fill="#111111"/>
<path d="M28.3577 1.20005L27.1504 2.6875L29.3083 4.43879L30.5156 2.95134L28.3577 1.20005Z" fill="#111111"/>
<path fill-rule="evenodd" clip-rule="evenodd" d="M27.7019 11.8266L31.8821 19.7961L29.4124 19.82L25.7852 12.8125L27.7019 11.8266Z" fill="#111111"/>
<path fill-rule="evenodd" clip-rule="evenodd" d="M10.3739 19.7111L10.3735 19.6177H10.3739V19.7111Z" fill="#111111"/>
<path fill-rule="evenodd" clip-rule="evenodd" d="M9.05846 19.8229H6.17653V2.91106H0V0.0263672H15.9057V2.91106H9.10439L10.3214 3.79503L10.3757 19.7102V19.8233L9.06131 19.8229H9.05846Z" fill="#111111"/>
<defs>
<linearGradient id="paint0_linear_464_10038" x1="65.4375" y1="9.92465" x2="88.2179" y2="9.92465" gradientUnits="userSpaceOnUse">
<stop stop-color="#297AFF"/>
<stop offset="1" stop-color="#297AFF" stop-opacity="0"/>
</linearGradient>
</defs>
</svg>
