<svg width="128" height="20" viewBox="0 0 128 20" fill="none" xmlns="http://www.w3.org/2000/svg">
<path d="M85.4726 0.0604248H65.7983V19.8061H85.4726V0.0604248Z" fill="url(#paint0_linear_934_337)"/>
<path fill-rule="evenodd" clip-rule="evenodd" d="M9.03954 19.8562H6.16363V2.91768H0V0.0284424H15.8725V2.91768H9.08538L10.2999 3.80305L10.354 19.7434V19.8567L9.04239 19.8562H9.03954Z" fill="#121212"/>
<path fill-rule="evenodd" clip-rule="evenodd" d="M50.8247 1.83065L50.8307 1.83784C50.8307 1.83784 51.2216 2.36651 51.3702 2.66476C51.6149 3.15577 51.7372 3.67517 51.7372 4.22268V15.9495C51.7372 16.497 51.6149 17.0163 51.3702 17.5073C51.1256 17.9983 50.7963 18.4279 50.3824 18.7961C49.9685 19.1644 49.4982 19.4571 48.9713 19.6743C48.4445 19.8914 47.9083 20 47.3626 20H38.9521C38.4064 20 37.889 19.8914 37.3998 19.6743C36.9106 19.4571 36.4826 19.1644 36.1157 18.7961C35.7489 18.4279 35.4572 17.9983 35.2408 17.5073C35.0245 17.0163 34.9243 16.4987 34.9243 15.951V5.69759V4.21534C34.9243 3.83651 34.983 3.47119 35.1002 3.11944C35.1289 3.03351 35.161 2.94844 35.1967 2.86402C35.2257 2.79547 35.257 2.72756 35.2907 2.66002C35.5349 2.16985 35.8635 1.74107 36.2768 1.37344C36.69 1.00581 37.1596 0.713552 37.6855 0.496887C37.7335 0.476993 37.7815 0.458291 37.8296 0.440235C38.1924 0.304819 38.5597 0.220604 38.9315 0.187669C39.0293 0.178976 39.1274 0.173746 39.2256 0.172241H47.3626C47.9083 0.172241 48.4445 0.280782 48.9713 0.497948C49.4982 0.715115 49.9685 1.00784 50.3824 1.37597C50.5425 1.51841 50.8247 1.83065 50.8247 1.83065ZM47.7022 3.14401C47.5926 3.12663 47.4795 3.11797 47.3626 3.11797H37.8299L39.0912 4.03746L39.1442 17.0541H47.3626C47.4795 17.0541 47.5926 17.0456 47.7022 17.0282V3.14401Z" fill="#121212"/>
<path fill-rule="evenodd" clip-rule="evenodd" d="M19.9193 19.8273V19.8278H17.0405V5.58392V3.88983C17.0559 3.54511 17.1193 3.21161 17.2307 2.88928C17.2571 2.81322 17.2861 2.73781 17.3177 2.66308C17.3475 2.59237 17.3798 2.52235 17.4143 2.4528C17.6662 1.94758 17.9785 1.61738 18.4046 1.23838C18.8305 0.859383 19.3146 0.558328 19.8567 0.334809L19.9193 0.309585C20.3212 0.150429 20.7285 0.0525709 21.1411 0.0159585C21.2436 0.00693074 21.3463 0.00162669 21.4495 0.00012207H28.6285C29.1742 0.00012207 29.6823 0.103906 30.1527 0.311544C30.623 0.519348 31.0417 0.807227 31.4085 1.17552C31.7755 1.54382 32.0623 1.96395 32.2694 2.43607C32.4762 2.90818 32.5799 3.4179 32.5799 3.96559V7.22315C32.5799 7.94068 32.4011 8.62991 32.0435 9.29077C31.686 9.95164 31.1498 10.4615 30.4349 10.8203L29.2612 11.8968L34.2848 19.8278H31.7633L29.3498 19.8512L25.9928 13.342H19.9196L19.919 13.3415V13.342H19.9196L21.1801 14.261L21.2342 19.8273H19.9193V19.7544H19.919V19.8273H19.9193ZM27.154 2.88928L23.0341 2.88912H21.7988V2.88879H19.9176L19.9178 2.96806L21.1789 3.88755L21.2259 10.4684H25.6728L28.7798 8.44018V4.12362L27.154 2.88928Z" fill="#121212"/>
<path fill-rule="evenodd" clip-rule="evenodd" d="M65.6595 2.94646C65.5617 2.92974 65.4609 2.92016 65.3571 2.91748H60.7428V2.91536H59.0221L60.2832 3.83485L57.2749 19.8562H52.7422L55.9596 3.62571C56.3359 2.54924 56.8768 1.68068 57.5824 1.01965C58.288 0.358783 59.1863 0.0283203 60.2777 0.0283203H65.4181C65.4974 0.0306608 65.5765 0.0353393 65.6555 0.0423608C66.0216 0.0747937 66.3834 0.157529 66.7407 0.290437C66.79 0.308827 66.8392 0.328084 66.8882 0.348313C67.4085 0.562805 67.8731 0.842143 68.2819 1.20593C68.6907 1.56954 69.0158 1.99381 69.2575 2.47863C69.2907 2.54551 69.3217 2.61272 69.3503 2.68043C69.3835 2.75883 69.4134 2.83774 69.4406 2.91748C69.5552 3.25602 69.6148 3.6073 69.6195 3.97142V19.8562H67.8103H66.7407H65.6595V2.94646Z" fill="#121212"/>
<path d="M122.948 19.8823L118.647 13.1884L114.745 19.8823H110.244L116.511 9.85567L110.159 0H114.745L119.046 6.6654L122.92 0H127.42L121.182 9.9981L127.534 19.8823H122.948Z" fill="black"/>
<path d="M107.102 0V19.8823H103.114V0H107.102Z" fill="black"/>
<path d="M100.204 0V3.21876H94.9061V19.8823H90.9183V3.21876H85.6201V0H100.204Z" fill="black"/>
<defs>
<linearGradient id="paint0_linear_934_337" x1="65.7983" y1="9.93325" x2="85.4726" y2="9.93325" gradientUnits="userSpaceOnUse">
<stop stop-color="#297AFF"/>
<stop offset="1" stop-color="#297AFF" stop-opacity="0"/>
</linearGradient>
</defs>
</svg>
