<svg width="86" height="28" viewBox="0 0 86 28" fill="none" xmlns="http://www.w3.org/2000/svg">
<path fill-rule="evenodd" clip-rule="evenodd" d="M66.8411 12.0042C66.2192 12.4407 65.8067 13.1562 65.7851 13.9685H55.5186V0.191711H65.8271C65.9488 0.83887 66.3221 1.3976 66.8411 1.7619C67.2426 2.04371 67.7315 2.20924 68.2587 2.20924C68.6204 2.20924 68.9637 2.13145 69.2735 1.99159V11.7745C68.9637 11.6346 68.6204 11.5568 68.2587 11.5568C67.7315 11.5568 67.2426 11.7223 66.8411 12.0042Z" fill="url(#paint0_linear_40_657)"/>
<path fill-rule="evenodd" clip-rule="evenodd" d="M70.6935 0.17601H85.9197V13.9528H70.7321C70.7005 12.9821 70.1102 12.1519 69.2734 11.7741C68.9638 11.6343 68.6202 11.5565 68.2589 11.5565C67.7317 11.5565 67.2426 11.722 66.841 12.004V1.76156C67.2426 2.04338 67.7317 2.20886 68.2589 2.20886C68.6202 2.20886 68.9638 2.13107 69.2734 1.99139C70.0037 1.66179 70.5461 0.987443 70.6935 0.17601Z" fill="url(#paint1_linear_40_657)"/>
<path d="M0 0.196289H11.4644V2.74797H7.27057V13.9361H4.17421V2.74797H0V0.196289Z" fill="#111111"/>
<path d="M19.0877 0.196289C20.8777 0.196289 22.2656 0.611644 23.2521 1.44271C24.2386 2.27338 24.7317 3.44129 24.7317 4.94639C24.7317 6.52961 24.2386 7.76308 23.2521 8.64635C22.2656 9.52963 20.8777 9.97126 19.0877 9.97126H16.2265V13.9361H13.1301V0.196289H19.0877ZM19.0877 7.45878C19.937 7.45878 20.5998 7.259 21.0768 6.86015C21.5538 6.46091 21.7921 5.85557 21.7921 5.04453C21.7921 4.2594 21.5538 3.67055 21.0768 3.27798C20.5998 2.88541 19.937 2.68913 19.0877 2.68913H16.2265V7.45878H19.0877ZM18.7153 8.81321H21.7333L25.0648 13.9361H21.5569L18.7153 8.81321Z" fill="#111111"/>
<path d="M33.7069 0C34.7523 0 35.7223 0.176694 36.6171 0.530004C37.5119 0.883314 38.2927 1.38032 38.959 2.02178C39.6253 2.66284 40.1446 3.4087 40.517 4.25939C40.8893 5.10969 41.0755 6.03894 41.0755 7.04666C41.0755 8.04103 40.8893 8.97018 40.517 9.83382C40.1446 10.6975 39.6253 11.4532 38.959 12.101C38.2927 12.7487 37.5119 13.2523 36.6171 13.6123C35.7223 13.9719 34.7523 14.1521 33.7069 14.1521C32.6616 14.1521 31.6916 13.9719 30.7967 13.6123C29.9019 13.2523 29.1212 12.7487 28.4549 12.101C27.7886 11.4532 27.2693 10.6975 26.8969 9.83382C26.5246 8.97018 26.3384 8.04103 26.3384 7.04666C26.3384 6.03894 26.5246 5.10659 26.8969 4.24961C27.2693 3.39225 27.7886 2.64629 28.4549 2.01191C29.1212 1.37713 29.9019 0.883314 30.7967 0.530004C31.6916 0.176694 32.6616 0 33.7069 0ZM33.7461 2.61063C33.1712 2.61063 32.626 2.72167 32.1098 2.94425C31.5936 3.16645 31.1428 3.48056 30.7576 3.88647C30.3723 4.29199 30.0685 4.76302 29.8463 5.29965C29.6241 5.8359 29.5131 6.41855 29.5131 7.04666C29.5131 7.67476 29.6241 8.26002 29.8463 8.80334C30.0685 9.34626 30.3754 9.82407 30.7674 10.2363C31.1593 10.6485 31.61 10.9688 32.1196 11.198C32.6291 11.4269 33.1712 11.5415 33.7461 11.5415C34.3211 11.5415 34.86 11.4269 35.3629 11.198C35.8658 10.9688 36.3067 10.6485 36.6857 10.2363C37.0647 9.82407 37.3618 9.34626 37.5774 8.80334C37.793 8.26002 37.9007 7.67476 37.9007 7.04666C37.9007 6.41855 37.793 5.8359 37.5774 5.29965C37.3618 4.76302 37.0647 4.29199 36.6857 3.88647C36.3067 3.48056 35.8658 3.16645 35.3629 2.94425C34.86 2.72167 34.3211 2.61063 33.7461 2.61063Z" fill="#111111"/>
<path d="M43.1138 0.196289H45.9358L53.4023 10.2853L52.5988 10.5601V0.196289H55.5188V13.9361H52.7164L45.2499 3.86683L46.0729 3.59205V13.9361H43.1138V0.196289Z" fill="#111111"/>
<path d="M42.7823 25.1332C42.7823 25.6082 42.865 25.9313 43.0305 26.1027C43.1959 26.2737 43.4276 26.3595 43.7254 26.3595C43.9239 26.3595 44.1307 26.3263 44.3458 26.26C44.5609 26.1938 44.7952 26.0944 45.049 25.9618L45.5288 27.3372C45.187 27.547 44.8339 27.7101 44.4699 27.8261C44.1059 27.9421 43.7363 28.0001 43.3614 28.0001C42.9203 28.0001 42.512 27.9142 42.1371 27.7432C41.7621 27.5719 41.4614 27.2984 41.2353 26.9229C41.0093 26.5471 40.8962 26.0612 40.8962 25.4646V17.0298H42.7823V25.1332ZM39.6553 19.4326H45.3799V20.7915H39.6553V19.4326Z" fill="#111111"/>
<path d="M47.2826 19.1178H49.1688V27.9172H47.2826V19.1178ZM48.2257 15.4886C48.5457 15.4886 48.8104 15.5934 49.0199 15.8035C49.2293 16.0133 49.3342 16.2784 49.3342 16.5989C49.3342 16.9081 49.2293 17.1706 49.0199 17.3861C48.8104 17.6015 48.5457 17.7092 48.2257 17.7092C47.917 17.7092 47.6549 17.6015 47.4398 17.3861C47.2247 17.1706 47.1172 16.9081 47.1172 16.5989C47.1172 16.2784 47.2247 16.0133 47.4398 15.8035C47.6549 15.5934 47.917 15.4886 48.2257 15.4886Z" fill="#111111"/>
<path d="M58.186 21.6366C57.8773 21.3161 57.5133 21.0676 57.094 20.8909C56.6748 20.7139 56.2006 20.6257 55.6711 20.6257C55.1639 20.6257 54.7115 20.7471 54.3144 20.9903C53.9173 21.2333 53.6086 21.573 53.3879 22.0095C53.1672 22.4456 53.057 22.9511 53.057 23.5257C53.057 24.1001 53.1672 24.6056 53.3879 25.0421C53.6086 25.4783 53.9173 25.8209 54.3144 26.0695C54.7115 26.3181 55.1639 26.4423 55.6711 26.4423C56.2228 26.4423 56.7191 26.3512 57.1602 26.1689C57.6013 25.9866 57.9709 25.7185 58.2687 25.3652L59.3276 26.4093C58.9305 26.9064 58.415 27.2928 57.7807 27.5693C57.1463 27.8453 56.4157 27.9835 55.5884 27.9835C54.7171 27.9835 53.9478 27.7956 53.2804 27.42C52.6129 27.0442 52.0917 26.5223 51.7168 25.8541C51.3419 25.1856 51.1543 24.4093 51.1543 23.5257C51.1543 22.6418 51.3419 21.8657 51.7168 21.1975C52.0917 20.529 52.6129 20.0043 53.2804 19.6232C53.9478 19.2421 54.7171 19.0515 55.5884 19.0515C56.3826 19.0515 57.0858 19.1702 57.6979 19.4078C58.3101 19.6451 58.8204 19.9795 59.2284 20.4103L58.186 21.6366Z" fill="#111111"/>
<path d="M61.3958 15.6212H63.2984V27.9172H61.3958V15.6212ZM67.1866 19.1178H69.3705L63.1495 25.5807V23.3104L67.1866 19.1178ZM65.9291 22.2498L69.6187 27.9172H67.3686L64.5228 23.3932L65.9291 22.2498Z" fill="#111111"/>
<path d="M76.8324 22.8795C76.8102 22.3823 76.6974 21.9598 76.4932 21.6118C76.2891 21.2638 76.0051 20.993 75.6411 20.7998C75.2771 20.6062 74.8579 20.5098 74.3837 20.5098C73.8543 20.5098 73.3936 20.631 73.0022 20.8743C72.6107 21.1173 72.3046 21.457 72.0839 21.8935C71.8632 22.3297 71.753 22.8407 71.753 23.4264C71.753 24.0561 71.8715 24.6029 72.1087 25.0669C72.346 25.5309 72.6769 25.8899 73.1015 26.1441C73.526 26.398 74.0141 26.5252 74.5657 26.5252C75.5475 26.5252 76.3748 26.1772 77.0475 25.4812L78.0567 26.4921C77.6266 26.967 77.1027 27.3343 76.4849 27.5941C75.8671 27.8536 75.1779 27.9835 74.4168 27.9835C73.5124 27.9835 72.7236 27.7956 72.0508 27.42C71.3781 27.0442 70.8539 26.5223 70.479 25.8541C70.1041 25.1856 69.9165 24.4093 69.9165 23.5257C69.9165 22.6418 70.1041 21.8657 70.479 21.1975C70.8539 20.529 71.3781 20.007 72.0508 19.6315C72.7236 19.2556 73.4959 19.0624 74.3672 19.0515C75.4039 19.0515 76.2368 19.2639 76.8655 19.6895C77.4942 20.1147 77.9409 20.7139 78.2056 21.4875C78.4704 22.2607 78.564 23.1778 78.4869 24.2384H71.4552V22.8795H76.8324Z" fill="#111111"/>
<path d="M82.7061 25.1332C82.7061 25.6082 82.7889 25.9313 82.9543 26.1027C83.1198 26.2737 83.3514 26.3595 83.6492 26.3595C83.8478 26.3595 84.0546 26.3263 84.2697 26.26C84.4848 26.1938 84.719 26.0944 84.9728 25.9618L85.4526 27.3372C85.1108 27.547 84.7578 27.7101 84.3938 27.8261C84.0298 27.9421 83.6601 28.0001 83.2852 28.0001C82.8441 28.0001 82.4358 27.9142 82.0609 27.7432C81.686 27.5719 81.3852 27.2984 81.1592 26.9229C80.9332 26.5471 80.82 26.0612 80.82 25.4646V17.0298H82.7061V25.1332ZM79.5791 19.4326H85.3037V20.7915H79.5791V19.4326Z" fill="#111111"/>
<defs>
<linearGradient id="paint0_linear_40_657" x1="55.5186" y1="7.08009" x2="69.2735" y2="7.08009" gradientUnits="userSpaceOnUse">
<stop stop-color="#297AFF"/>
<stop offset="1" stop-color="#297AFF" stop-opacity="0"/>
</linearGradient>
<linearGradient id="paint1_linear_40_657" x1="85.9197" y1="7.06438" x2="66.841" y2="7.06438" gradientUnits="userSpaceOnUse">
<stop stop-color="#297AFF"/>
<stop offset="1" stop-color="#297AFF" stop-opacity="0"/>
</linearGradient>
</defs>
</svg>
